<svg xmlns="http://www.w3.org/2000/svg" viewBox="0 0 240 64" role="img" aria-label="open-cfmoto">
  <rect width="240" height="64" rx="10" fill="#1f4d8f"/>
  <g fill="#f5f8ff">
    <path d="M20 39V25h6.8c4.7 0 7.3 2.6 7.3 7s-2.6 7-7.3 7H20zm4.7-3.8h2.1c1.9 0 3-1.1 3-3.2s-1.1-3.2-3-3.2h-2.1v6.4z"/>
    <path d="M39 39V25h4.6v14H39z"/>
    <path d="M49 39V25h4.2l5.2 7V25H63v14h-4l-5.4-7.3V39H49z"/>
    <path d="M69 39V25h10.4v3.6h-5.8v1.8h5.3v3.5h-5.3v1.5h6V39H69z"/>
  </g>
  <text x="124" y="39" fill="#f5f8ff" font-family="Segoe UI, sans-serif" font-size="22" font-weight="700">open-cfmoto</text>
</svg>

